PathFileType	4	(X/Y/Z)	5_coords_data.trc
DataRate	CameraRate	NumFrames	NumMarkers	Units	OrigDataRate	OrigDataStartFrame	OrigNumFrames
30.0	30.0	7	21	m	30.0	59	68
Frame#	Time	THUMB_TIP	THUMB_IP	THUMB_MCP	THUMB_CMC	INDEX_TIP	INDEX_DIP	INDEX_PIP	INDEX_MCP	MIDDLE_TIP	MIDDLE_DIP	MIDDLE_PIP	MIDDLE_MCP	RING_TIP	RING_DIP	RING_PIP	RING_MCP	PINKY_TIP	PINKY_DIP	PINKY_PIP	PINKY_MCP	WRIST
X1	Y1	Z1	X2	Y2	Z2	X3	Y3	Z3	X4	Y4	Z4	X5	Y5	Z5	X6	Y6	Z6	X7	Y7	Z7	X8	Y8	Z8	X9	Y9	Z9	X10	Y10	Z10	X11	Y11	Z11	X12	Y12	Z12	X13	Y13	Z13	X14	Y14	Z14	X15	Y15	Z15	X16	Y16	Z16	X17	Y17	Z17	X18	Y18	Z18	X19	Y19	Z19	X20	Y20	Z20	X21	Y21	Z21
57	1.9333333333333247	0.5601813657003353	0.004296955931277546	-0.11863644717467958	0.5398164481939765	-0.0016202584539805054	-0.10979016496811977	0.518607711464451	0.003188627366255248	-0.08752170962192202	0.48069175726054203	-0.014730709674470432	-0.0723175070177744	0.5845326549226995	-0.09667895033491025	-0.1361936941087043	0.5746181612718324	-0.08455597851219032	-0.12709774062199072	0.5608600257360074	-0.06887649867690948	-0.11306643805690841	0.5341879076232965	-0.043571768361085894	-0.09157446669490799	0.5641652413628897	-0.12412787653361745	-0.14263459072209503	0.5568288276956495	-0.11029598763071069	-0.1335320699788736	0.5449492663741139	-0.09012752709449823	-0.11616777407010959	0.5237973073482096	-0.062016914638535314	-0.08862624147446174	0.545103350426315	-0.13541720837534676	-0.13481710700548752	0.5370656444973575	-0.12265055887557441	-0.1249475607165457	0.5274134471643765	-0.10545918429923684	-0.10973336649466015	0.5104935071991707	-0.07552974882549712	-0.08845743272438622	0.5171638893650873	-0.1417217579986756	-0.12072420699597508	0.5114365071299795	-0.12834304133595686	-0.11171271249219483	0.5048199312308964	-0.11137592356742931	-0.10126523159962608	0.49174639496373374	-0.08074045305106237	-0.08742926229090042	0.462283081001861	-0.023011742144276925	-0.051989820119430985
58	1.966666666666658	0.559990870543377	0.004250465343337839	-0.11889401022908513	0.5396722377021543	-0.0016828528859039737	-0.10995259567353871	0.5184852369599607	0.00324857468819717	-0.08769025029773253	0.48065794763791214	-0.014745561743513158	-0.0723541087809424	0.5849121739391437	-0.09647779197987649	-0.1357843279791806	0.5749603249595103	-0.08436641206817985	-0.12671376137498647	0.5611598523176148	-0.06869660276910261	-0.11271326622692668	0.5343652666470647	-0.04343687572513255	-0.0913209203432308	0.564348940017345	-0.12370161439956284	-0.14273256023492306	0.5570281005967733	-0.1099308859088225	-0.13352537027204556	0.545186206653203	-0.08985790279838102	-0.11602524321887336	0.5240562788351367	-0.06192459807489692	-0.08828710055163091	0.5456041928395843	-0.13529103163761946	-0.13439198059136137	0.5375553912413342	-0.12256111561373895	-0.12448410337891264	0.5278891414727362	-0.10540046697429972	-0.1092441646426579	0.5108519725144401	-0.07551787922374598	-0.08799594925366755	0.5178569225135516	-0.14174280033580233	-0.12013696845555938	0.5120720575070706	-0.12838895834818376	-0.11112529596780718	0.505363877698913	-0.11143473395829018	-0.10071536714967577	0.4921111292190228	-0.08084220154901167	-0.08695509573098581	0.4622830810018609	-0.023011742144276925	-0.051989820119430985
60	2.000000000000001	0.559737958388973	0.004137133178679031	-0.1192449483689445	0.5394696541582118	-0.0017979495026256842	-0.1101911846667385	0.5183459781231872	0.003263451715535437	-0.08789785542958506	0.4805938122182436	-0.014767722299009356	-0.07242075191688518	0.5850419742099788	-0.09642597280001686	-0.13559432740073432	0.5750825637417998	-0.08430715987337678	-0.12654200635166488	0.5612864586533491	-0.0686207226886687	-0.11255583440081873	0.5344412930220531	-0.04337043715100042	-0.09121581901904124	0.5643705338313347	-0.12343963335247787	-0.1428805928712183	0.5570605167080761	-0.10970640952830357	-0.1336090119352184	0.5452507024762445	-0.08969954785625611	-0.1160117586312171	0.5241886524176449	-0.0618895570203678	-0.08809863666256479	0.5458906714701084	-0.13529738524032253	-0.1340386427484897	0.5378365291462208	-0.1225761291308275	-0.12412398519397982	0.5281599006644024	-0.10541264793622662	-0.10889382585445068	0.5110586400623911	-0.07553686370998058	-0.08768757119482506	0.51828137317698	-0.14181122574490834	-0.11967753931049391	0.5124644764056809	-0.12846767583162022	-0.11067124219882607	0.5056971374096644	-0.11151651814074348	-0.10029466304902801	0.4923305354232749	-0.0809499378514782	-0.08658694362684283	0.462283081001861	-0.023011742144276925	-0.051989820119430985
61	2.033333333333334	0.5593814211690873	0.004001659998958074	-0.11974488765979757	0.5391801532305968	-0.001931875241696579	-0.11054152233915393	0.5181603931774654	0.0032752072563090318	-0.08818361592625956	0.4805086604371033	-0.014793731241235175	-0.07250718510734183	0.5851171646334434	-0.09637125374135025	-0.13548670207692953	0.5751533337686793	-0.08424397713212695	-0.1264505946992056	0.5613660107363077	-0.0685398718216933	-0.11247559441298566	0.5344864232880314	-0.043296058605448495	-0.09117128107240091	0.5643390965406591	-0.12318900512106012	-0.1430716371376844	0.5570445469239704	-0.10948857520958477	-0.1337395545121168	0.5452744672546848	-0.0895406318372508	-0.11604903926261578	0.5242981535601369	-0.061847075055712186	-0.0879561736633997	0.5460870964889281	-0.13530251949637906	-0.13376397401305057	0.5380422964210925	-0.12258787460011611	-0.12383326421815227	0.5283794334669534	-0.1054199811205595	-0.10859933852566833	0.5112456158456278	-0.0755501374848887	-0.08741100284539993	0.5186454557700806	-0.1418713177038532	-0.11927494759720292	0.5128062038681961	-0.1285388232220459	-0.11026674421812022	0.5059944499385531	-0.11159364470227418	-0.09990947853961873	0.49253160657983264	-0.08105479642057845	-0.08623417067010009	0.4622830810018608	-0.023011742144276925	-0.051989820119430985
62	2.0666666666666678	0.5589618593641916	0.0038517125976644806	-0.12033064276098426	0.538836569490641	-0.0020747741608889703	-0.11095783836708739	0.5179489231554676	0.0032838023394881066	-0.08851208401428551	0.48041299380896596	-0.014823089501793674	-0.07260345503682292	0.5851525177606272	-0.09631342756595573	-0.135445953536878	0.5751842569714685	-0.08417796594673355	-0.12642573468544702	0.5614044906874881	-0.06845723699261297	-0.11246197604710223	0.5345045637157997	-0.0432176148849992	-0.09117837910526233	0.5642784207718894	-0.12297735151858347	-0.14325937136761085	0.5569993703232036	-0.10929940372258229	-0.13388231593131555	0.5452677621783817	-0.08939371605202073	-0.11611879942420472	0.5243835099262782	-0.061799745816634055	-0.0878598409239501	0.5462094015938207	-0.13531773954652704	-0.13354803863974668	0.5381805703950453	-0.12260293950341195	-0.12360461219585073	0.5285463260055197	-0.10542449446849178	-0.10836445667744715	0.5114058425831319	-0.0755571739554396	-0.08717795561149805	0.5189483005661114	-0.1419225981782536	-0.11893277213693748	0.5130930796170783	-0.12859997574287751	-0.1099203296776251	0.5062498047392563	-0.11166248812235202	-0.09957126590107412	0.49270696426133687	-0.08115052573402748	-0.0859149459720781	0.4622830810018609	-0.023011742144276925	-0.051989820119430985
63	2.1000000000000014	0.5585212745799772	0.0036952342996540155	-0.12093937918522135	0.5384726085457321	-0.002216645564425135	-0.11139471225965503	0.5177327362838466	0.003289459224422364	-0.08884786084720919	0.48031752428841223	-0.014855215340545902	-0.07269971246208162	0.5851627049624287	-0.09625224390177545	-0.13545644850730768	0.5751868524934403	-0.08411019438507994	-0.1264535044859839	0.5614077757980112	-0.0683759695261098	-0.11250427344951269	0.5344995476026918	-0.04313896819790031	-0.09122806341697687	0.5642126767511735	-0.12283282864705025	-0.14339772828775837	0.5569444799450501	-0.10916134679501976	-0.1340028414253709	0.5452410560498506	-0.08927163145220629	-0.11620287955150371	0.5244433845996666	-0.06175012027926352	-0.0878097253412406	0.5462735174308767	-0.1353543655221383	-0.13337101977843485	0.5382591966177688	-0.12262789188272871	-0.12343082206360034	0.5286591248227548	-0.10542819991039465	-0.1081930664353129	0.5115322529550921	-0.07555751269087019	-0.08700030495734579	0.5191890926559728	-0.1419647285458292	-0.11865477389776513	0.5133210181035088	-0.12864886375114903	-0.10964070457162162	0.5064572790598662	-0.11171962059077911	-0.09929170310491753	0.4928493304540724	-0.08123112575683156	-0.0856476982492152	0.4622830810018609	-0.023011742144276925	-0.051989820119430985
64	2.1333333333333346	0.5581032973441258	0.0035405303887593442	-0.12150898010041222	0.5381230142198238	-0.0023472998658303768	-0.11180734409580628	0.5175337983161032	0.003292729377994408	-0.08915576007616682	0.48023313487627806	-0.014889437127662997	-0.07278629679512322	0.5851623481640849	-0.09618741637009709	-0.13550244551851515	0.5751725898355188	-0.08404170650982967	-0.1265198812673088	0.5613817063003929	-0.06829920034464543	-0.1125916773644457	0.5344751869832606	-0.04306397717196386	-0.09131119749058597	0.5641661086160227	-0.12278363629597366	-0.14344071357233437	0.5568994626004535	-0.10909695492246041	-0.13406678117102402	0.5452049156754036	-0.0891873316588172	-0.11628324879644775	0.5244763682502729	-0.06170070542509909	-0.08780587846609617	0.546295314800039	-0.13542364058532608	-0.13321316026825802	0.5382859646840761	-0.12266925676056584	-0.12330477977644105	0.5287163088196704	-0.10543306856348855	-0.10808914695779759	0.5116177343164621	-0.0755506993829479	-0.08689000555735121	0.5193670633678046	-0.1419974494701669	-0.11844481915777011	0.5134859893161992	-0.12868330106775183	-0.10943668836842219	0.5066110031592208	-0.11176172312664134	-0.09908261746252828	0.4929514854419903	-0.08129074312188189	-0.08545102165417862	0.4622830810018609	-0.023011742144276925	-0.051989820119430985
